<?xml version="1.0" encoding="UTF-8"?>
<svg width="184px" height="243px" viewBox="0 0 184 243" version="1.1" xmlns="http://www.w3.org/2000/svg" xmlns:xlink="http://www.w3.org/1999/xlink">
    <title>Group 2</title>
    <g id="Page-1" stroke="none" stroke-width="1" fill="none" fill-rule="evenodd">
        <g id="Group-2" fill="#42EF44" fill-rule="nonzero">
            <path d="M184,0 L183.999526,144.480327 C183.90128,145.322838 183.834771,146.194729 183.8,147.096 C183.666667,150.552 183.6,154.116 183.6,157.788 L183.6,243 L108,243 L108,12.96 L116.4,10.044 C126.8,6.372 136.866667,3.78 146.6,2.268 C156.333333,0.756 166.8,0 178,0 L184,0 Z" id="Combined-Shape-Copy-3"></path>
            <path d="M76,58 L75.9996756,167.994332 C75.9013475,168.636053 75.8347889,169.300165 75.8,169.986667 C75.6666667,172.617778 75.6,175.331111 75.6,178.126667 L75.6,243 L0,243 L0,67.8666667 L8.4,65.6466667 C18.8,62.8511111 28.8666667,60.8777778 38.6,59.7266667 C48.3333333,58.5755556 58.8,58 70,58 L76,58 Z" id="Combined-Shape-Copy-2"></path>
        </g>
    </g>
</svg>